<svg id="_5335781_camera_instagram_social_media_instagram_logo_icon" data-name="5335781_camera_instagram_social media_instagram logo_icon" xmlns="http://www.w3.org/2000/svg" width="17.393" height="17.393" viewBox="0 0 17.393 17.393">
  <path id="Path_1" data-name="Path 1" d="M8.7.162c-2.362,0-2.658.01-3.586.052A6.384,6.384,0,0,0,3,.618a4.263,4.263,0,0,0-1.54,1,4.263,4.263,0,0,0-1,1.54,6.383,6.383,0,0,0-.4,2.111C.01,6.2,0,6.5,0,8.858s.01,2.658.052,3.586a6.383,6.383,0,0,0,.4,2.111,4.263,4.263,0,0,0,1,1.54A4.263,4.263,0,0,0,3,17.1a6.384,6.384,0,0,0,2.111.4c.928.042,1.224.052,3.586.052s2.658-.01,3.586-.052a6.383,6.383,0,0,0,2.111-.4,4.447,4.447,0,0,0,2.543-2.543,6.383,6.383,0,0,0,.4-2.111c.042-.928.052-1.224.052-3.586s-.01-2.658-.052-3.586a6.383,6.383,0,0,0-.4-2.111,4.263,4.263,0,0,0-1-1.54,4.263,4.263,0,0,0-1.54-1,6.383,6.383,0,0,0-2.111-.4C11.355.172,11.058.162,8.7.162Zm0,1.567c2.322,0,2.6.009,3.514.051a4.813,4.813,0,0,1,1.615.3,2.7,2.7,0,0,1,1,.651,2.694,2.694,0,0,1,.651,1,4.811,4.811,0,0,1,.3,1.615c.042.917.051,1.192.051,3.514s-.009,2.6-.051,3.514a4.811,4.811,0,0,1-.3,1.615,2.88,2.88,0,0,1-1.65,1.65,4.811,4.811,0,0,1-1.615.3c-.917.042-1.192.051-3.514.051s-2.6-.009-3.514-.051a4.811,4.811,0,0,1-1.615-.3,2.694,2.694,0,0,1-1-.651,2.694,2.694,0,0,1-.651-1,4.812,4.812,0,0,1-.3-1.615c-.042-.917-.051-1.192-.051-3.514s.009-2.6.051-3.514a4.812,4.812,0,0,1,.3-1.615,2.694,2.694,0,0,1,.651-1,2.7,2.7,0,0,1,1-.651,4.813,4.813,0,0,1,1.615-.3C6.1,1.737,6.374,1.729,8.7,1.729Z" transform="translate(0 -0.162)"/>
  <path id="Path_2" data-name="Path 2" d="M129.006,132.066a2.9,2.9,0,1,1,2.9-2.9A2.9,2.9,0,0,1,129.006,132.066Zm0-7.365a4.466,4.466,0,1,0,4.466,4.466A4.466,4.466,0,0,0,129.006,124.7Z" transform="translate(-120.309 -120.471)" fill="#030404"/>
  <path id="Path_3" data-name="Path 3" d="M364.02,89.832a1.044,1.044,0,1,1-1.044-1.044A1.044,1.044,0,0,1,364.02,89.832Z" transform="translate(-349.637 -85.778)" fill="#030404"/>
</svg>
