<svg xmlns="http://www.w3.org/2000/svg" viewBox="0 0 729.41 118.37"><defs><style>.cls-1{fill:#fff;}</style></defs><g id="Layer_2" data-name="Layer 2"><g id="Layer_1-2" data-name="Layer 1"><path class="cls-1" d="M0,73.92V1.11H25.13A48,48,0,0,1,37.34,2.47a23.4,23.4,0,0,1,8.31,3.88,15,15,0,0,1,4.75,6.09,20.5,20.5,0,0,1,1.51,8.06,16,16,0,0,1-.75,4.91,14.29,14.29,0,0,1-2.34,4.38,17.6,17.6,0,0,1-4,3.7A24.24,24.24,0,0,1,39,36.31q15,3.38,15,16.21a20.74,20.74,0,0,1-1.76,8.56,19,19,0,0,1-5.14,6.78,24.59,24.59,0,0,1-8.31,4.45,36.14,36.14,0,0,1-11.28,1.61ZM13.54,32.63H24.37q6.9,0,10.47-2.51t3.58-8c0-3.79-1.08-6.5-3.22-8.11s-5.51-2.41-10.07-2.41H13.54Zm0,9.37V63.35H27.29a18.82,18.82,0,0,0,6.32-.91A10.93,10.93,0,0,0,37.69,60,8.91,8.91,0,0,0,39.9,56.5a13.1,13.1,0,0,0,.68-4.28A11.38,11.38,0,0,0,39.83,48a7.92,7.92,0,0,0-2.37-3.23,11,11,0,0,0-4.13-2,22.82,22.82,0,0,0-6.09-.7Z"/><path class="cls-1" d="M111.53,1.11V11.89H79.25V32.08h25.43V42.5H79.25V63.1h32.28V73.92H65.61V1.11Z"/><path class="cls-1" d="M169.18,1.11V11.89H136.91V32.08h25.43V42.5H136.91V63.1h32.27V73.92H123.26V1.11Z"/><path class="cls-1" d="M194.91,45.47V73.92H181.37V1.11h22.21a46.13,46.13,0,0,1,12.76,1.54A24.4,24.4,0,0,1,225.05,7a16.66,16.66,0,0,1,5,6.63,22.16,22.16,0,0,1,1.58,8.48,22,22,0,0,1-1.08,7A20.08,20.08,0,0,1,227.42,35a20.94,20.94,0,0,1-5,4.68,26.36,26.36,0,0,1-6.82,3.23A13.38,13.38,0,0,1,220,47l18.23,26.89H226a5.93,5.93,0,0,1-3-.7,6,6,0,0,1-2.09-2L205.64,47.89A5.37,5.37,0,0,0,203.75,46a6.6,6.6,0,0,0-3.05-.56Zm0-9.71h8.46a21,21,0,0,0,6.68-1,13.08,13.08,0,0,0,4.68-2.64,10.64,10.64,0,0,0,2.74-4,13.7,13.7,0,0,0,.91-5.08q0-5.55-3.65-8.51t-11.15-3h-8.67Z"/><path class="cls-1" d="M285.9,14.36a3.89,3.89,0,0,1-1.28,1.56,3.27,3.27,0,0,1-1.74.45,4.38,4.38,0,0,1-2.26-.78c-.84-.52-1.83-1.1-3-1.74a23.88,23.88,0,0,0-4-1.73,16.55,16.55,0,0,0-5.41-.79,16,16,0,0,0-4.91.68,10.71,10.71,0,0,0-3.53,1.89,7.62,7.62,0,0,0-2.14,2.9,9.49,9.49,0,0,0-.7,3.7,6.47,6.47,0,0,0,1.43,4.28,12.11,12.11,0,0,0,3.81,2.92,34.82,34.82,0,0,0,5.38,2.16c2,.64,4.07,1.32,6.17,2a60,60,0,0,1,6.17,2.52,21.61,21.61,0,0,1,5.39,3.63,16.37,16.37,0,0,1,3.8,5.36,18.54,18.54,0,0,1,1.43,7.7,25.19,25.19,0,0,1-1.68,9.24,21.45,21.45,0,0,1-4.94,7.51,23.14,23.14,0,0,1-7.93,5,29.06,29.06,0,0,1-10.72,1.84,34.82,34.82,0,0,1-6.85-.68,35.6,35.6,0,0,1-6.47-1.94,33.75,33.75,0,0,1-5.79-3,28.29,28.29,0,0,1-4.81-3.93l3.93-6.49a5.05,5.05,0,0,1,1.33-1.19,3.25,3.25,0,0,1,1.74-.48,4.82,4.82,0,0,1,2.72,1c1,.69,2.12,1.45,3.45,2.29a26.17,26.17,0,0,0,4.68,2.29,18.07,18.07,0,0,0,6.47,1q5.79,0,9-2.74T277.8,53a7.31,7.31,0,0,0-1.44-4.69,11.65,11.65,0,0,0-3.8-3,28.43,28.43,0,0,0-5.39-2.09q-3-.85-6.14-1.87a53.27,53.27,0,0,1-6.15-2.41,19.83,19.83,0,0,1-5.38-3.68,16.62,16.62,0,0,1-3.8-5.66,21.55,21.55,0,0,1-1.44-8.39,20.09,20.09,0,0,1,6.22-14.45A22.84,22.84,0,0,1,258,2.07,27.07,27.07,0,0,1,268.08.31a34,34,0,0,1,11.88,2A26.8,26.8,0,0,1,289.23,8Z"/><path class="cls-1" d="M390.18,37.52a40.34,40.34,0,0,1-2.67,14.83,35.1,35.1,0,0,1-7.5,11.8,33.82,33.82,0,0,1-11.63,7.78,42,42,0,0,1-30.14,0,34,34,0,0,1-11.68-7.78A34.86,34.86,0,0,1,319,52.35a40.34,40.34,0,0,1-2.66-14.83A40.34,40.34,0,0,1,319,22.69a34.91,34.91,0,0,1,7.53-11.81A34.17,34.17,0,0,1,338.24,3.1,39.52,39.52,0,0,1,353.33.31a38.91,38.91,0,0,1,15.05,2.82A34.4,34.4,0,0,1,380,10.91a34.81,34.81,0,0,1,7.5,11.78A40.34,40.34,0,0,1,390.18,37.52Zm-13.9,0a33.8,33.8,0,0,0-1.58-10.75,22.76,22.76,0,0,0-4.56-8.08,19.67,19.67,0,0,0-7.22-5.09,27.09,27.09,0,0,0-19.21,0,19.8,19.8,0,0,0-7.28,5.09,22.85,22.85,0,0,0-4.61,8.08,33.5,33.5,0,0,0-1.61,10.75,33.54,33.54,0,0,0,1.61,10.75,22.54,22.54,0,0,0,4.61,8,20,20,0,0,0,7.28,5.07,27.09,27.09,0,0,0,19.21,0,19.85,19.85,0,0,0,7.22-5.07,22.45,22.45,0,0,0,4.56-8A33.84,33.84,0,0,0,376.28,37.52Z"/><path class="cls-1" d="M409.47,1.19a3.57,3.57,0,0,1,1.08.3,3.65,3.65,0,0,1,.93.65,11.47,11.47,0,0,1,1,1.14L450.71,52c-.14-1.18-.23-2.32-.28-3.45s-.08-2.17-.08-3.15V1.11h11.94V73.92h-7a6.15,6.15,0,0,1-2.67-.5,6,6,0,0,1-2.06-1.81L412.49,23.12c.1,1.07.18,2.14.23,3.19s.07,2,.07,2.9V73.92H400.86V1.11H408A12.61,12.61,0,0,1,409.47,1.19Z"/><path class="cls-1" d="M510.42,48.29V73.92H496.88V1.11H520.6a41.54,41.54,0,0,1,12.63,1.71,24.49,24.49,0,0,1,8.82,4.79A18.84,18.84,0,0,1,547.18,15a25.63,25.63,0,0,1,1.66,9.37A25.78,25.78,0,0,1,547.08,34a20.09,20.09,0,0,1-5.29,7.58A24.55,24.55,0,0,1,533,46.53a39,39,0,0,1-12.38,1.76Zm0-10.57H520.6a20.44,20.44,0,0,0,6.49-.93,11.93,11.93,0,0,0,4.58-2.67,10.9,10.9,0,0,0,2.72-4.23,16.05,16.05,0,0,0,.91-5.56,14.57,14.57,0,0,0-.91-5.29,10.4,10.4,0,0,0-2.72-4,11.86,11.86,0,0,0-4.58-2.54,21.41,21.41,0,0,0-6.49-.88H510.42Z"/><path class="cls-1" d="M599.6,1.19a3.57,3.57,0,0,1,1.08.3,3.65,3.65,0,0,1,.93.65,10.32,10.32,0,0,1,1,1.14L640.84,52c-.14-1.18-.23-2.32-.28-3.45s-.07-2.17-.07-3.15V1.11h11.93V73.92h-7a6.18,6.18,0,0,1-2.67-.5,6,6,0,0,1-2.06-1.81L602.62,23.12c.1,1.07.18,2.14.23,3.19s.07,2,.07,2.9V73.92H591V1.11h7.1A12.49,12.49,0,0,1,599.6,1.19Z"/><path class="cls-1" d="M681.12,31.63h3.17a8.31,8.31,0,0,0,3.18-.53,5.39,5.39,0,0,0,2.16-1.69L709.72,4a7.36,7.36,0,0,1,2.64-2.24,8.49,8.49,0,0,1,3.5-.63h11.69L703,31.37a21.79,21.79,0,0,1-2.21,2.37,10,10,0,0,1-2.27,1.56,10.34,10.34,0,0,1,3,1.71,15.91,15.91,0,0,1,2.59,2.82l25.28,34.09h-12a7.29,7.29,0,0,1-3.59-.68,5.5,5.5,0,0,1-2-2l-20.6-26.88A6,6,0,0,0,689,42.48a8.77,8.77,0,0,0-3.58-.58h-4.28v32H667.58V1.06h13.54Z"/><path class="cls-1" d="M575.94,41.19c.34-1.89.82-3.74,1.29-5.6.83-3.26,1.46-6.56,2-9.88A169.09,169.09,0,0,0,581,7.9c.13-2.63.23-5.27.22-7.9H553.36c0,2.63.09,5.27.22,7.9a171.79,171.79,0,0,0,1.76,17.81c.51,3.32,1.15,6.62,2,9.88.47,1.86,1,3.71,1.29,5.6s.58,3.71.74,5.58a51.94,51.94,0,0,1-1.52,17.94,23.09,23.09,0,0,1-2,5.12,6.65,6.65,0,0,0-1.19,2.24,2.69,2.69,0,0,0,2.57,2.78,25.06,25.06,0,0,0,2.6,0h14.9a25,25,0,0,0,2.6,0,2.69,2.69,0,0,0,2.58-2.78,6.86,6.86,0,0,0-1.2-2.24,22.58,22.58,0,0,1-2-5.12,51.46,51.46,0,0,1-1.52-17.94A55.31,55.31,0,0,1,575.94,41.19Zm-20.82-32c0-.46-.06-.91-.08-1.38-.1-1.9-.19-4.08-.21-6.36h24.89c0,2.28-.12,4.46-.22,6.36,0,.47,0,.92-.07,1.38Z"/><path class="cls-1" d="M77.92,118.14H76.85a.45.45,0,0,1-.31-.1.73.73,0,0,1-.19-.26l-2.25-5.55H64.71l-2.24,5.55a.51.51,0,0,1-.19.25.45.45,0,0,1-.32.11H60.91L68.72,99H70.1ZM65.13,111.2h8.56l-3.9-9.65c-.06-.15-.13-.32-.19-.52s-.12-.4-.19-.61c-.06.21-.12.42-.19.61a4.61,4.61,0,0,1-.19.53Z"/><path class="cls-1" d="M100,114.93a.32.32,0,0,1,.23.09l.54.59a9.39,9.39,0,0,1-1.3,1.14,8.38,8.38,0,0,1-3.35,1.41,11.31,11.31,0,0,1-2.18.2,9.19,9.19,0,0,1-3.64-.7,8.1,8.1,0,0,1-2.84-2,9.18,9.18,0,0,1-1.84-3.08,11.71,11.71,0,0,1-.66-4,11.16,11.16,0,0,1,.68-4,9.18,9.18,0,0,1,1.92-3.09,8.61,8.61,0,0,1,3-2,9.89,9.89,0,0,1,3.8-.71,11.13,11.13,0,0,1,1.9.16,7.92,7.92,0,0,1,1.61.45,7.2,7.2,0,0,1,1.41.72,10.75,10.75,0,0,1,1.3,1l-.42.6a.37.37,0,0,1-.34.17.57.57,0,0,1-.31-.15l-.48-.35c-.19-.14-.42-.29-.7-.46a6,6,0,0,0-1-.45,8.41,8.41,0,0,0-1.31-.36,9.34,9.34,0,0,0-1.68-.14,8.33,8.33,0,0,0-3.2.6,7.12,7.12,0,0,0-2.51,1.72A7.64,7.64,0,0,0,87,105a10,10,0,0,0-.59,3.55A10.42,10.42,0,0,0,87,112.2a7.93,7.93,0,0,0,1.6,2.7A7.07,7.07,0,0,0,91,116.58a7.58,7.58,0,0,0,3,.59,11.24,11.24,0,0,0,1.83-.13,7.29,7.29,0,0,0,1.48-.41,6.76,6.76,0,0,0,1.25-.66,9.46,9.46,0,0,0,1.15-.92l.13-.09A.32.32,0,0,1,100,114.93Z"/><path class="cls-1" d="M119.52,118.14h-1.06a.45.45,0,0,1-.31-.1.63.63,0,0,1-.19-.26l-2.26-5.55h-9.38l-2.24,5.55a.58.58,0,0,1-.19.25.46.46,0,0,1-.32.11h-1.06L110.33,99h1.38Zm-12.78-6.94h8.56l-3.9-9.65a3.84,3.84,0,0,1-.19-.52c-.07-.19-.13-.4-.19-.61-.06.21-.13.42-.19.61s-.13.37-.19.53Z"/><path class="cls-1" d="M128.82,117.16a6.08,6.08,0,0,0,2.47-.48,5.24,5.24,0,0,0,1.84-1.33,5.89,5.89,0,0,0,1.16-2,7.73,7.73,0,0,0,.39-2.49V99h1.38v11.81a8.58,8.58,0,0,1-.5,3,6.88,6.88,0,0,1-1.44,2.39,6.57,6.57,0,0,1-2.28,1.6,8.13,8.13,0,0,1-6,0,6.57,6.57,0,0,1-2.28-1.6,6.88,6.88,0,0,1-1.44-2.39,8.58,8.58,0,0,1-.5-3V99H123v11.8a7.47,7.47,0,0,0,.4,2.49,5.73,5.73,0,0,0,1.15,2,5.14,5.14,0,0,0,1.83,1.34A5.91,5.91,0,0,0,128.82,117.16Z"/><path class="cls-1" d="M150.82,101.36a.37.37,0,0,1-.35.23.78.78,0,0,1-.46-.25,5.65,5.65,0,0,0-.75-.55,6,6,0,0,0-1.19-.56,5.87,5.87,0,0,0-3.58,0,3.83,3.83,0,0,0-1.33.81,3.32,3.32,0,0,0-.81,1.19,3.58,3.58,0,0,0-.28,1.41,2.94,2.94,0,0,0,.41,1.61,3.87,3.87,0,0,0,1.09,1.08,6.81,6.81,0,0,0,1.53.75l1.77.6c.6.2,1.19.42,1.76.66a6.14,6.14,0,0,1,1.54.89,4.11,4.11,0,0,1,1.08,1.33,4.16,4.16,0,0,1,.42,2,6.29,6.29,0,0,1-.41,2.26,5.33,5.33,0,0,1-1.2,1.84,5.58,5.58,0,0,1-1.92,1.24,7,7,0,0,1-2.59.45,7.25,7.25,0,0,1-3.25-.67,7.45,7.45,0,0,1-2.39-1.83l.38-.59a.45.45,0,0,1,.37-.21.51.51,0,0,1,.31.17c.13.1.28.24.46.4l.65.51a6.58,6.58,0,0,0,.88.51,6.44,6.44,0,0,0,1.15.4,6,6,0,0,0,1.47.16,5.58,5.58,0,0,0,2-.34,4.35,4.35,0,0,0,1.51-.94,4.1,4.1,0,0,0,.94-1.41,4.65,4.65,0,0,0,.32-1.75,3.06,3.06,0,0,0-.41-1.67,3.54,3.54,0,0,0-1.09-1.09,7.24,7.24,0,0,0-1.53-.74l-1.77-.58c-.6-.19-1.19-.4-1.76-.63a6.11,6.11,0,0,1-1.53-.9,4,4,0,0,1-1.09-1.36,4.49,4.49,0,0,1-.41-2,4.91,4.91,0,0,1,.36-1.85,4.53,4.53,0,0,1,1.07-1.57A5.26,5.26,0,0,1,144,99.24a6.21,6.21,0,0,1,2.36-.42,7,7,0,0,1,2.66.48,6.3,6.3,0,0,1,2.16,1.44Z"/><path class="cls-1" d="M167.12,99v1.15H157.07v7.72h8.37V109h-8.37v8h10.05v1.14H155.68V99Z"/><path class="cls-1" d="M188.29,99v1.15H178.23v8h8.71v1.15h-8.71v8.77h-1.39V99Z"/><path class="cls-1" d="M209.32,108.58a11.61,11.61,0,0,1-.66,4,8.91,8.91,0,0,1-1.86,3.08,8.17,8.17,0,0,1-2.88,2,10.1,10.1,0,0,1-7.39,0,8.17,8.17,0,0,1-2.88-2,9.09,9.09,0,0,1-1.87-3.08,12.34,12.34,0,0,1,0-8,9.18,9.18,0,0,1,1.87-3.08,8.17,8.17,0,0,1,2.88-2,9.36,9.36,0,0,1,3.68-.71,9.62,9.62,0,0,1,3.71.7,8.06,8.06,0,0,1,2.88,2,8.91,8.91,0,0,1,1.86,3.08A11.57,11.57,0,0,1,209.32,108.58Zm-1.43,0a10.91,10.91,0,0,0-.55-3.59,7.79,7.79,0,0,0-1.56-2.7,6.78,6.78,0,0,0-2.42-1.69,8.22,8.22,0,0,0-3.15-.59,8.05,8.05,0,0,0-3.11.59,6.91,6.91,0,0,0-2.43,1.69,7.68,7.68,0,0,0-1.58,2.7,11.82,11.82,0,0,0,0,7.19,7.68,7.68,0,0,0,1.58,2.7,6.76,6.76,0,0,0,2.43,1.68,8,8,0,0,0,3.11.58,8.22,8.22,0,0,0,3.15-.58,6.64,6.64,0,0,0,2.42-1.68,7.79,7.79,0,0,0,1.56-2.7A10.81,10.81,0,0,0,207.89,108.58Z"/><path class="cls-1" d="M215.6,109.5v8.64h-1.38V99h4.88a8,8,0,0,1,4.94,1.28,4.46,4.46,0,0,1,1.63,3.74,5,5,0,0,1-.38,2,4.77,4.77,0,0,1-1.08,1.59,5.76,5.76,0,0,1-1.71,1.12,7.74,7.74,0,0,1-2.25.57,2.66,2.66,0,0,1,.58.54l6.57,8.26h-1.2a.7.7,0,0,1-.37-.08.85.85,0,0,1-.31-.27L219.41,110a1.57,1.57,0,0,0-.49-.42,2.11,2.11,0,0,0-.82-.12Zm0-1h3.32a7.62,7.62,0,0,0,2.28-.31,4.88,4.88,0,0,0,1.7-.87,3.89,3.89,0,0,0,1.06-1.36,4.32,4.32,0,0,0,.36-1.8,3.5,3.5,0,0,0-1.33-3,6.49,6.49,0,0,0-3.89-1h-3.5Z"/><path class="cls-1" d="M252.15,108.58a11.35,11.35,0,0,1-.67,4,8.6,8.6,0,0,1-1.86,3,8,8,0,0,1-2.87,1.9,10.09,10.09,0,0,1-3.72.66h-7V99h7a10.09,10.09,0,0,1,3.72.66,8.07,8.07,0,0,1,2.87,1.91,8.51,8.51,0,0,1,1.86,3A11.26,11.26,0,0,1,252.15,108.58Zm-1.44,0a10.65,10.65,0,0,0-.55-3.56,7.52,7.52,0,0,0-1.56-2.64,6.68,6.68,0,0,0-2.42-1.65,8.41,8.41,0,0,0-3.15-.57h-5.57V117H243a8.61,8.61,0,0,0,3.15-.56,6.68,6.68,0,0,0,2.42-1.65,7.47,7.47,0,0,0,1.56-2.65A10.64,10.64,0,0,0,250.71,108.58Z"/><path class="cls-1" d="M258.37,109.5v8.64H257V99h4.87a8,8,0,0,1,4.95,1.28,4.46,4.46,0,0,1,1.63,3.74,5.17,5.17,0,0,1-.38,2,4.66,4.66,0,0,1-1.09,1.59,5.84,5.84,0,0,1-1.7,1.12,7.72,7.72,0,0,1-2.26.57,2.28,2.28,0,0,1,.58.54l6.58,8.26H269a.76.76,0,0,1-.38-.08.92.92,0,0,1-.3-.27L262.18,110a1.6,1.6,0,0,0-.5-.42,2,2,0,0,0-.81-.12Zm0-1h3.32a7.55,7.55,0,0,0,2.27-.31,4.93,4.93,0,0,0,1.71-.87,3.89,3.89,0,0,0,1.06-1.36,4.32,4.32,0,0,0,.36-1.8,3.51,3.51,0,0,0-1.34-3,6.45,6.45,0,0,0-3.89-1h-3.49Z"/><path class="cls-1" d="M275.51,118.14h-1.39V99h1.39Z"/><path class="cls-1" d="M282.67,99.09a.61.61,0,0,1,.23.21l12.36,16.55c0-.27,0-.53,0-.79V99h1.22v19.1h-.66a.57.57,0,0,1-.5-.27l-12.42-16.58c0,.27,0,.53,0,.77v16.08h-1.2V99h.67A.78.78,0,0,1,282.67,99.09Z"/><path class="cls-1" d="M303.89,107.86H305l.45,0a1.13,1.13,0,0,0,.34-.09,1.32,1.32,0,0,0,.29-.15,1.93,1.93,0,0,0,.29-.24l7.71-7.93a1.57,1.57,0,0,1,.39-.3A1.08,1.08,0,0,1,315,99h1.12l-8.35,8.57a4,4,0,0,1-.45.42,1.55,1.55,0,0,1-.44.24,1.73,1.73,0,0,1,.51.25,3.08,3.08,0,0,1,.45.44l8.8,9.18h-1.12a.91.91,0,0,1-.5-.1,3.05,3.05,0,0,1-.31-.26l-8.08-8.26-.27-.26a1.34,1.34,0,0,0-.28-.18,1.24,1.24,0,0,0-.37-.11,4.06,4.06,0,0,0-.54,0h-1.23v9.2h-1.38V99h1.38Z"/><path class="cls-1" d="M321.82,118.14h-1.39V99h1.39Z"/><path class="cls-1" d="M329,99.09a.55.55,0,0,1,.23.21l12.37,16.55a7.09,7.09,0,0,1,0-.79V99h1.21v19.1h-.66a.58.58,0,0,1-.5-.27l-12.42-16.58a7,7,0,0,1,0,.77v16.08H328V99h.68A.76.76,0,0,1,329,99.09Z"/><path class="cls-1" d="M356.62,117.24a16.25,16.25,0,0,0,1.8-.1,9.24,9.24,0,0,0,1.5-.31,9,9,0,0,0,1.32-.49c.42-.19.84-.41,1.27-.65v-5.15h-3.68a.34.34,0,0,1-.24-.09.29.29,0,0,1-.11-.22v-.75h5.28v6.79a12.35,12.35,0,0,1-1.48.89,9.6,9.6,0,0,1-1.65.65,12.55,12.55,0,0,1-1.89.41,16.66,16.66,0,0,1-2.21.14,9.83,9.83,0,0,1-3.78-.7,8.37,8.37,0,0,1-2.93-2,9,9,0,0,1-1.89-3.08,12.22,12.22,0,0,1,0-8,8.87,8.87,0,0,1,1.91-3.08,8.46,8.46,0,0,1,3-2,10.89,10.89,0,0,1,4-.7,12.68,12.68,0,0,1,2,.15,9.83,9.83,0,0,1,1.72.44,8.11,8.11,0,0,1,1.48.72,9.39,9.39,0,0,1,1.32,1l-.36.59a.38.38,0,0,1-.34.2.59.59,0,0,1-.23-.05,3,3,0,0,1-.58-.38,6.94,6.94,0,0,0-1-.62,8.58,8.58,0,0,0-1.64-.58,9.7,9.7,0,0,0-2.39-.26,9,9,0,0,0-3.37.6,7,7,0,0,0-2.55,1.7,7.64,7.64,0,0,0-1.64,2.7,11.59,11.59,0,0,0,0,7.21,7.86,7.86,0,0,0,1.63,2.72,7,7,0,0,0,2.51,1.71A8.6,8.6,0,0,0,356.62,117.24Z"/><path class="cls-1" d="M367.21,117.1a1.28,1.28,0,0,1,.09-.48,1.11,1.11,0,0,1,.26-.4A1.51,1.51,0,0,1,368,116a1.18,1.18,0,0,1,.5-.1,1.12,1.12,0,0,1,.48.1,1.27,1.27,0,0,1,.67.67,1.12,1.12,0,0,1,.1.48,1.18,1.18,0,0,1-.1.5,1.51,1.51,0,0,1-.27.39,1.11,1.11,0,0,1-.4.26,1.29,1.29,0,0,1-.48.1,1.21,1.21,0,0,1-1.24-1.25Z"/><path class="cls-1" d="M393.54,118.14h-1.06a.45.45,0,0,1-.31-.1.63.63,0,0,1-.19-.26l-2.26-5.55h-9.38l-2.24,5.55a.58.58,0,0,1-.19.25.46.46,0,0,1-.32.11h-1.06L384.35,99h1.38Zm-12.78-6.94h8.56l-3.9-9.65a3.84,3.84,0,0,1-.19-.52c-.07-.19-.13-.4-.19-.61-.07.21-.13.42-.19.61s-.13.37-.19.53Z"/><path class="cls-1" d="M403.56,110.45v7.69h-1.38V99h4.93a7.59,7.59,0,0,1,5.07,1.47,5.24,5.24,0,0,1,1.71,4.2,5.64,5.64,0,0,1-.47,2.31,5.09,5.09,0,0,1-1.34,1.81A6.3,6.3,0,0,1,410,110a8.69,8.69,0,0,1-2.84.43Zm0-1.11h3.55a6.94,6.94,0,0,0,2.27-.35,5,5,0,0,0,1.69-1,4.19,4.19,0,0,0,1.07-1.47,4.45,4.45,0,0,0,.37-1.84,4.24,4.24,0,0,0-1.36-3.39,6,6,0,0,0-4-1.19h-3.55Z"/><path class="cls-1" d="M430.59,118.14h-1.07a.45.45,0,0,1-.31-.1.73.73,0,0,1-.19-.26l-2.25-5.55h-9.39l-2.24,5.55a.51.51,0,0,1-.19.25.45.45,0,0,1-.32.11h-1.05L421.39,99h1.38ZM417.8,111.2h8.56l-3.9-9.65c-.06-.15-.13-.32-.19-.52s-.13-.4-.19-.61c-.06.21-.12.42-.19.61a4.61,4.61,0,0,1-.19.53Z"/><path class="cls-1" d="M439.89,117.16a6,6,0,0,0,2.46-.48,5.16,5.16,0,0,0,1.84-1.33,5.89,5.89,0,0,0,1.16-2,7.74,7.74,0,0,0,.4-2.49V99h1.37v11.81a8.35,8.35,0,0,1-.5,3,7,7,0,0,1-1.43,2.39,6.76,6.76,0,0,1-2.28,1.6,8.15,8.15,0,0,1-6,0,6.66,6.66,0,0,1-2.28-1.6,6.88,6.88,0,0,1-1.44-2.39,8.58,8.58,0,0,1-.5-3V99H434v11.8a7.47,7.47,0,0,0,.4,2.49,5.89,5.89,0,0,0,1.15,2,5.23,5.23,0,0,0,1.83,1.34A5.92,5.92,0,0,0,439.89,117.16Z"/><path class="cls-1" d="M461.88,101.36a.37.37,0,0,1-.35.23.78.78,0,0,1-.46-.25,5.65,5.65,0,0,0-.75-.55,5.93,5.93,0,0,0-1.18-.56,5.27,5.27,0,0,0-1.76-.26,5.16,5.16,0,0,0-1.83.3,3.92,3.92,0,0,0-1.33.81,3.32,3.32,0,0,0-.81,1.19,3.58,3.58,0,0,0-.28,1.41,2.94,2.94,0,0,0,.41,1.61,3.87,3.87,0,0,0,1.09,1.08,6.68,6.68,0,0,0,1.54.75l1.76.6c.6.2,1.19.42,1.76.66a6,6,0,0,1,1.54.89,3.91,3.91,0,0,1,1.5,3.3,6.29,6.29,0,0,1-.41,2.26,5.33,5.33,0,0,1-1.2,1.84,5.64,5.64,0,0,1-1.91,1.24,7,7,0,0,1-2.6.45,7.25,7.25,0,0,1-3.25-.67,7.45,7.45,0,0,1-2.39-1.83l.38-.59a.47.47,0,0,1,.38-.21.57.57,0,0,1,.31.17l.46.4c.18.15.39.32.65.51a5.87,5.87,0,0,0,.87.51,6.44,6.44,0,0,0,1.15.4,6.1,6.1,0,0,0,1.48.16,5.56,5.56,0,0,0,2-.34,4.35,4.35,0,0,0,1.51-.94,4,4,0,0,0,.94-1.41,4.66,4.66,0,0,0,.33-1.75,3.07,3.07,0,0,0-.42-1.67A3.51,3.51,0,0,0,460,110a7.33,7.33,0,0,0-1.54-.74l-1.76-.58c-.61-.19-1.19-.4-1.77-.63a6.11,6.11,0,0,1-1.53-.9,4.17,4.17,0,0,1-1.09-1.36,4.62,4.62,0,0,1-.41-2,4.91,4.91,0,0,1,.36-1.85,4.67,4.67,0,0,1,1.07-1.57A5.26,5.26,0,0,1,455,99.24a6.21,6.21,0,0,1,2.36-.42,7.06,7.06,0,0,1,2.67.48,6.26,6.26,0,0,1,2.15,1.44Z"/><path class="cls-1" d="M478.19,99v1.15H468.13v7.72h8.37V109h-8.37v8h10.06v1.14H466.74V99Z"/><path class="cls-1" d="M499.35,99v1.15H489.3v8H498v1.15h-8.7v8.77h-1.39V99Z"/><path class="cls-1" d="M520.39,108.58a11.61,11.61,0,0,1-.66,4,9.09,9.09,0,0,1-1.87,3.08,8.22,8.22,0,0,1-2.87,2,9.71,9.71,0,0,1-3.72.7,9.54,9.54,0,0,1-3.68-.7,8.17,8.17,0,0,1-2.88-2,9.09,9.09,0,0,1-1.87-3.08,12.34,12.34,0,0,1,0-8,9.18,9.18,0,0,1,1.87-3.08,8.17,8.17,0,0,1,2.88-2,9.36,9.36,0,0,1,3.68-.71,9.71,9.71,0,0,1,3.72.7,8.11,8.11,0,0,1,2.87,2,9.09,9.09,0,0,1,1.87,3.08A11.57,11.57,0,0,1,520.39,108.58Zm-1.43,0a10.91,10.91,0,0,0-.56-3.59,7.79,7.79,0,0,0-1.56-2.7,6.78,6.78,0,0,0-2.42-1.69,8.18,8.18,0,0,0-3.15-.59,8.05,8.05,0,0,0-3.11.59,6.91,6.91,0,0,0-2.43,1.69,7.83,7.83,0,0,0-1.58,2.7,11.82,11.82,0,0,0,0,7.19,7.83,7.83,0,0,0,1.58,2.7,6.76,6.76,0,0,0,2.43,1.68,8,8,0,0,0,3.11.58,8.18,8.18,0,0,0,3.15-.58,6.64,6.64,0,0,0,2.42-1.68,7.79,7.79,0,0,0,1.56-2.7A10.8,10.8,0,0,0,519,108.58Z"/><path class="cls-1" d="M526.66,109.5v8.64h-1.37V99h4.87a8,8,0,0,1,4.94,1.28,4.46,4.46,0,0,1,1.64,3.74,5.17,5.17,0,0,1-.38,2,5,5,0,0,1-1.09,1.59,5.76,5.76,0,0,1-1.71,1.12,7.66,7.66,0,0,1-2.25.57,2.45,2.45,0,0,1,.58.54l6.57,8.26h-1.2a.72.72,0,0,1-.37-.08.92.92,0,0,1-.3-.27L530.47,110a1.57,1.57,0,0,0-.49-.42,2.11,2.11,0,0,0-.82-.12Zm0-1H530a7.6,7.6,0,0,0,2.27-.31,4.79,4.79,0,0,0,1.7-.87,3.78,3.78,0,0,0,1.06-1.36,4.32,4.32,0,0,0,.36-1.8,3.5,3.5,0,0,0-1.33-3,6.47,6.47,0,0,0-3.89-1h-3.5Z"/><path class="cls-1" d="M561,114.93a.33.33,0,0,1,.23.09l.54.59a9.39,9.39,0,0,1-1.3,1.14,8.38,8.38,0,0,1-3.35,1.41,11.31,11.31,0,0,1-2.18.2,9.16,9.16,0,0,1-3.64-.7,8.1,8.1,0,0,1-2.84-2,9.18,9.18,0,0,1-1.84-3.08,11.71,11.71,0,0,1-.66-4,11.16,11.16,0,0,1,.68-4,9,9,0,0,1,1.92-3.09,8.66,8.66,0,0,1,2.95-2,10,10,0,0,1,3.8-.71,11.17,11.17,0,0,1,1.91.16,8.11,8.11,0,0,1,1.61.45,7.2,7.2,0,0,1,1.41.72,10.75,10.75,0,0,1,1.3,1l-.42.6a.37.37,0,0,1-.34.17.57.57,0,0,1-.31-.15l-.48-.35c-.19-.14-.43-.29-.7-.46a6,6,0,0,0-1-.45,8.73,8.73,0,0,0-1.31-.36,9.45,9.45,0,0,0-1.69-.14,8.28,8.28,0,0,0-3.19.6,7.25,7.25,0,0,0-2.52,1.72A8,8,0,0,0,548,105a10.21,10.21,0,0,0-.58,3.55,10.42,10.42,0,0,0,.58,3.62,7.77,7.77,0,0,0,1.6,2.7,7.07,7.07,0,0,0,2.43,1.68,7.58,7.58,0,0,0,3,.59,11.24,11.24,0,0,0,1.83-.13,7.47,7.47,0,0,0,1.48-.41,6.76,6.76,0,0,0,1.25-.66,9.46,9.46,0,0,0,1.15-.92l.13-.09A.29.29,0,0,1,561,114.93Z"/><path class="cls-1" d="M580.5,118.14h-1.06a.45.45,0,0,1-.31-.1.55.55,0,0,1-.19-.26l-2.26-5.55H567.3l-2.24,5.55a.58.58,0,0,1-.19.25.46.46,0,0,1-.32.11h-1.06L571.31,99h1.38Zm-12.78-6.94h8.56l-3.9-9.65a3.84,3.84,0,0,1-.19-.52c-.07-.19-.13-.4-.19-.61-.07.21-.13.42-.19.61l-.19.53Z"/><path class="cls-1" d="M584.5,99.09a.7.7,0,0,1,.23.21l12.36,16.55c0-.27,0-.53,0-.79V99h1.22v19.1h-.67a.57.57,0,0,1-.49-.27l-12.42-16.58c0,.27,0,.53,0,.77v16.08h-1.21V99h.68A.81.81,0,0,1,584.5,99.09Z"/><path class="cls-1" d="M617.81,114.93a.32.32,0,0,1,.23.09l.54.59a8.23,8.23,0,0,1-2.82,2,9.09,9.09,0,0,1-1.83.55,11.24,11.24,0,0,1-2.18.2,9.14,9.14,0,0,1-3.63-.7,8,8,0,0,1-2.84-2,9,9,0,0,1-1.84-3.08,11.71,11.71,0,0,1-.66-4,10.94,10.94,0,0,1,.68-4,9,9,0,0,1,1.91-3.09,8.7,8.7,0,0,1,3-2,10,10,0,0,1,3.8-.71A11,11,0,0,1,614,99a8,8,0,0,1,1.62.45,7.2,7.2,0,0,1,1.41.72,10.66,10.66,0,0,1,1.29,1l-.41.6a.4.4,0,0,1-.34.17.54.54,0,0,1-.31-.15l-.48-.35c-.19-.14-.43-.29-.7-.46a6.46,6.46,0,0,0-1-.45,9.07,9.07,0,0,0-1.31-.36,9.54,9.54,0,0,0-1.69-.14,8.33,8.33,0,0,0-3.2.6,7.21,7.21,0,0,0-2.51,1.72,7.79,7.79,0,0,0-1.64,2.7,10.21,10.21,0,0,0-.59,3.55,10.65,10.65,0,0,0,.58,3.62,8,8,0,0,0,1.61,2.7,6.94,6.94,0,0,0,2.42,1.68,7.62,7.62,0,0,0,3,.59,11.07,11.07,0,0,0,1.83-.13,7.11,7.11,0,0,0,1.48-.41,6.85,6.85,0,0,0,1.26-.66,10.29,10.29,0,0,0,1.15-.92l.12-.09A.32.32,0,0,1,617.81,114.93Z"/><path class="cls-1" d="M634.38,99v1.15H624.32v7.72h8.37V109h-8.37v8h10.06v1.14H622.93V99Z"/><path class="cls-1" d="M640.67,109.5v8.64h-1.38V99h4.88a8,8,0,0,1,4.94,1.28,4.46,4.46,0,0,1,1.63,3.74,5.17,5.17,0,0,1-.38,2,4.77,4.77,0,0,1-1.08,1.59,6,6,0,0,1-1.71,1.12,7.72,7.72,0,0,1-2.26.57,2.28,2.28,0,0,1,.58.54l6.58,8.26h-1.2a.7.7,0,0,1-.37-.08.85.85,0,0,1-.31-.27L644.48,110a1.6,1.6,0,0,0-.5-.42,2,2,0,0,0-.81-.12Zm0-1H644a7.67,7.67,0,0,0,2.28-.31,4.88,4.88,0,0,0,1.7-.87,3.89,3.89,0,0,0,1.06-1.36,4.32,4.32,0,0,0,.36-1.8,3.48,3.48,0,0,0-1.34-3,6.44,6.44,0,0,0-3.88-1h-3.5Z"/><path class="cls-1" d="M654.51,117.1a1.28,1.28,0,0,1,.09-.48,1.13,1.13,0,0,1,.27-.4,1.36,1.36,0,0,1,.39-.27,1.13,1.13,0,0,1,.49-.1,1.19,1.19,0,0,1,.49.1,1.36,1.36,0,0,1,.39.27,1,1,0,0,1,.27.4,1.13,1.13,0,0,1,.11.48,1.18,1.18,0,0,1-.11.5,1.14,1.14,0,0,1-.27.39,1.16,1.16,0,0,1-.39.26,1.38,1.38,0,0,1-.49.1,1.18,1.18,0,0,1-.88-.36A1.21,1.21,0,0,1,654.51,117.1Z"/></g></g></svg>